<svg id="visual" viewBox="0 0 900 600" width="900" height="600" xmlns="http://www.w3.org/2000/svg" xmlns:xlink="http://www.w3.org/1999/xlink" version="1.1"><rect x="0" y="0" width="900" height="600" fill="#140021"></rect><path d="M580 0L769 0L769 29L767 29L767 57L535 57L535 86L491 86L491 114L627 114L627 143L704 143L704 171L701 171L701 200L522 200L522 229L716 229L716 257L523 257L523 286L590 286L590 314L542 314L542 343L549 343L549 371L580 371L580 400L695 400L695 429L590 429L590 457L647 457L647 486L656 486L656 514L576 514L576 543L684 543L684 571L689 571L689 600L0 600L0 571L0 571L0 543L0 543L0 514L0 514L0 486L0 486L0 457L0 457L0 429L0 429L0 400L0 400L0 371L0 371L0 343L0 343L0 314L0 314L0 286L0 286L0 257L0 257L0 229L0 229L0 200L0 200L0 171L0 171L0 143L0 143L0 114L0 114L0 86L0 86L0 57L0 57L0 29L0 29L0 0L0 0Z" fill="#560090"></path><path d="M671 0L589 0L589 29L487 29L487 57L520 57L520 86L519 86L519 114L532 114L532 143L537 143L537 171L534 171L534 200L518 200L518 229L573 229L573 257L423 257L423 286L439 286L439 314L596 314L596 343L496 343L496 371L443 371L443 400L467 400L467 429L645 429L645 457L621 457L621 486L608 486L608 514L662 514L662 543L457 543L457 571L441 571L441 600L0 600L0 571L0 571L0 543L0 543L0 514L0 514L0 486L0 486L0 457L0 457L0 429L0 429L0 400L0 400L0 371L0 371L0 343L0 343L0 314L0 314L0 286L0 286L0 257L0 257L0 229L0 229L0 200L0 200L0 171L0 171L0 143L0 143L0 114L0 114L0 86L0 86L0 57L0 57L0 29L0 29L0 0L0 0Z" fill="#5f009f"></path><path d="M418 0L496 0L496 29L571 29L571 57L414 57L414 86L599 86L599 114L567 114L567 143L503 143L503 171L563 171L563 200L425 200L425 229L510 229L510 257L459 257L459 286L483 286L483 314L507 314L507 343L385 343L385 371L495 371L495 400L366 400L366 429L492 429L492 457L519 457L519 486L547 486L547 514L407 514L407 543L530 543L530 571L547 571L547 600L0 600L0 571L0 571L0 543L0 543L0 514L0 514L0 486L0 486L0 457L0 457L0 429L0 429L0 400L0 400L0 371L0 371L0 343L0 343L0 314L0 314L0 286L0 286L0 257L0 257L0 229L0 229L0 200L0 200L0 171L0 171L0 143L0 143L0 114L0 114L0 86L0 86L0 57L0 57L0 29L0 29L0 0L0 0Z" fill="#6900ae"></path><path d="M424 0L335 0L335 29L330 29L330 57L332 57L332 86L405 86L405 114L402 114L402 143L422 143L422 171L386 171L386 200L415 200L415 229L357 229L357 257L405 257L405 286L402 286L402 314L370 314L370 343L394 343L394 371L398 371L398 400L508 400L508 429L412 429L412 457L309 457L309 486L354 486L354 514L317 514L317 543L393 543L393 571L417 571L417 600L0 600L0 571L0 571L0 543L0 543L0 514L0 514L0 486L0 486L0 457L0 457L0 429L0 429L0 400L0 400L0 371L0 371L0 343L0 343L0 314L0 314L0 286L0 286L0 257L0 257L0 229L0 229L0 200L0 200L0 171L0 171L0 143L0 143L0 114L0 114L0 86L0 86L0 57L0 57L0 29L0 29L0 0L0 0Z" fill="#7200be"></path><path d="M385 0L298 0L298 29L416 29L416 57L414 57L414 86L298 86L298 114L301 114L301 143L366 143L366 171L353 171L353 200L253 200L253 229L366 229L366 257L409 257L409 286L332 286L332 314L354 314L354 343L345 343L345 371L248 371L248 400L424 400L424 429L270 429L270 457L296 457L296 486L280 486L280 514L269 514L269 543L366 543L366 571L263 571L263 600L0 600L0 571L0 571L0 543L0 543L0 514L0 514L0 486L0 486L0 457L0 457L0 429L0 429L0 400L0 400L0 371L0 371L0 343L0 343L0 314L0 314L0 286L0 286L0 257L0 257L0 229L0 229L0 200L0 200L0 171L0 171L0 143L0 143L0 114L0 114L0 86L0 86L0 57L0 57L0 29L0 29L0 0L0 0Z" fill="#7c00ce"></path><path d="M164 0L330 0L330 29L203 29L203 57L251 57L251 86L231 86L231 114L222 114L222 143L162 143L162 171L302 171L302 200L328 200L328 229L252 229L252 257L322 257L322 286L171 286L171 314L314 314L314 343L246 343L246 371L181 371L181 400L253 400L253 429L229 429L229 457L256 457L256 486L272 486L272 514L306 514L306 543L241 543L241 571L223 571L223 600L0 600L0 571L0 571L0 543L0 543L0 514L0 514L0 486L0 486L0 457L0 457L0 429L0 429L0 400L0 400L0 371L0 371L0 343L0 343L0 314L0 314L0 286L0 286L0 257L0 257L0 229L0 229L0 200L0 200L0 171L0 171L0 143L0 143L0 114L0 114L0 86L0 86L0 57L0 57L0 29L0 29L0 0L0 0Z" fill="#8500de"></path><path d="M242 0L117 0L117 29L115 29L115 57L168 57L168 86L165 86L165 114L118 114L118 143L149 143L149 171L136 171L136 200L240 200L240 229L184 229L184 257L177 257L177 286L95 286L95 314L224 314L224 343L248 343L248 371L164 371L164 400L179 400L179 429L136 429L136 457L243 457L243 486L185 486L185 514L146 514L146 543L142 543L142 571L103 571L103 600L0 600L0 571L0 571L0 543L0 543L0 514L0 514L0 486L0 486L0 457L0 457L0 429L0 429L0 400L0 400L0 371L0 371L0 343L0 343L0 314L0 314L0 286L0 286L0 257L0 257L0 229L0 229L0 200L0 200L0 171L0 171L0 143L0 143L0 114L0 114L0 86L0 86L0 57L0 57L0 29L0 29L0 0L0 0Z" fill="#8f00ee"></path><path d="M146 0L142 0L142 29L48 29L48 57L141 57L141 86L80 86L80 114L47 114L47 143L90 143L90 171L20 171L20 200L46 200L46 229L150 229L150 257L157 257L157 286L122 286L122 314L52 314L52 343L58 343L58 371L73 371L73 400L73 400L73 429L157 429L157 457L26 457L26 486L92 486L92 514L32 514L32 543L58 543L58 571L76 571L76 600L0 600L0 571L0 571L0 543L0 543L0 514L0 514L0 486L0 486L0 457L0 457L0 429L0 429L0 400L0 400L0 371L0 371L0 343L0 343L0 314L0 314L0 286L0 286L0 257L0 257L0 229L0 229L0 200L0 200L0 171L0 171L0 143L0 143L0 114L0 114L0 86L0 86L0 57L0 57L0 29L0 29L0 0L0 0Z" fill="#9900ff"></path></svg>